<svg width="500" height="500" viewBox="0 0 500 500" fill="none" xmlns="http://www.w3.org/2000/svg">
<path d="M116.25 116.25C120.644 111.861 126.601 109.396 132.812 109.396C139.023 109.396 144.98 111.861 149.375 116.25L250 216.875L350.625 116.25C353.49 113.165 357.133 110.91 361.173 109.722C365.212 108.534 369.496 108.457 373.575 109.5C377.654 110.543 381.376 112.667 384.349 115.648C387.322 118.628 389.436 122.356 390.469 126.438C391.513 130.512 391.44 134.792 390.258 138.829C389.075 142.865 386.827 146.508 383.75 149.375L283.125 250L383.75 350.625C386.835 353.49 389.09 357.134 390.278 361.173C391.466 365.212 391.543 369.496 390.5 373.575C389.457 377.654 387.333 381.376 384.352 384.349C381.372 387.322 377.644 389.436 373.562 390.469C369.488 391.513 365.208 391.44 361.171 390.258C357.135 389.076 353.492 386.827 350.625 383.75L250 283.125L149.375 383.75C144.929 387.888 139.053 390.141 132.98 390.036C126.908 389.931 121.112 387.476 116.812 383.188C112.524 378.887 110.069 373.092 109.964 367.02C109.859 360.947 112.112 355.071 116.25 350.625L216.875 250L116.25 149.375C111.861 144.981 109.396 139.024 109.396 132.813C109.396 126.602 111.861 120.645 116.25 116.25Z" fill="#F3E1D5"/>
</svg>
